<svg data-name="Layer 1" xmlns="http://www.w3.org/2000/svg" viewBox="0 0 485 230"><path d="M73.8 31.97H8.94v64.6H73.8v-64.6zm64.87 64.6H73.8v64.91h64.87V96.57zm337.39 64.7c-9.78-1.04-19.61-4.1-24.46-11.59-20.43-31.5-39.2-93.87-58.96-113.63-24.47-24.47-59.4-24.8-80.12-15.5-18.43 8.28-32.9 23.53-38.42 43.54-3.87 14-3.15 28.68-.08 43.9 2.18 10.77-2.56 25.33-18.83 22.73-7.59-1.21-13.38-9.56-17.04-15.65-14.52-24.23-22.82-44.45-41.7-63.33-19.01-19.01-42.42-23.4-57.78-20.14v64.59c23.6-3.45 27.81 13 41.28 33.45 6.94 10.54 15.7 27.88 26.96 39.14 15.55 15.55 28.26 21.81 50.15 23.15 22.17 1.36 39.13-6.92 54.98-22.55 15.2-14.99 19.7-36.31 19.81-57.64.04-9.01-3.19-24.14-.81-28.99 6.76-13.79 23.3-8.02 28.42 8.08 8.46 26.63 27.88 75.85 53.78 99.14 18.89 16.98 34.59 26.15 62.84 25.53v-54.22z" fill="#fff" stroke-width="0"/></svg>